HIERARCHY
ROOT Hips
{
	OFFSET 0.000000 0.000000 0.000000
	CHANNELS 6 Xposition Yposition Zposition Zrotation Yrotation Xrotation 
	JOINT LHipJoint
	{
		OFFSET 0.000000 0.000000 0.000000
		CHANNELS 3 Zrotation Yrotation Xrotation
		JOINT LeftUpLeg
		{
			OFFSET 1.363060 -1.794630 0.839290
			CHANNELS 3 Zrotation Yrotation Xrotation
			JOINT LeftLeg
			{
				OFFSET 2.448110 -6.726130 0.000000
				CHANNELS 3 Zrotation Yrotation Xrotation
				JOINT LeftFoot
				{
					OFFSET 2.562200 -7.039590 0.000000
					CHANNELS 3 Zrotation Yrotation Xrotation
					JOINT LeftToeBase
					{
						OFFSET 0.157640 -0.433110 2.322550
						CHANNELS 3 Zrotation Yrotation Xrotation
						End Site
						{
							OFFSET 0.000000 0.000000 0.000000
						}
					}
				}
			}
		}
	}
	JOINT RHipJoint
	{
		OFFSET 0.000000 0.000000 0.000000
		CHANNELS 3 Zrotation Yrotation Xrotation
		JOINT RightUpLeg
		{
			OFFSET -1.305520 -1.794630 0.839290
			CHANNELS 3 Zrotation Yrotation Xrotation
			JOINT RightLeg
			{
				OFFSET -2.542530 -6.985550 0.000000
				CHANNELS 3 Zrotation Yrotation Xrotation
				JOINT RightFoot
				{
					OFFSET -2.568260 -7.056230 0.000000
					CHANNELS 3 Zrotation Yrotation Xrotation
					JOINT RightToeBase
					{
						OFFSET -0.164730 -0.452590 2.363150
						CHANNELS 3 Zrotation Yrotation Xrotation
						End Site
						{
							OFFSET 0.000000 0.000000 0.000000
						}
					}
				}
			}
		}
	}
	JOINT LowerBack
	{
		OFFSET 0.000000 0.000000 0.000000
		CHANNELS 3 Zrotation Yrotation Xrotation
		JOINT Spine
		{
			OFFSET 0.028270 2.035590 -0.193380
			CHANNELS 3 Zrotation Yrotation Xrotation
			JOINT Spine1
			{
				OFFSET 0.056720 2.048850 -0.042750
				CHANNELS 3 Zrotation Yrotation Xrotation
				JOINT Neck
				{
					OFFSET 0.000000 0.000000 0.000000
					CHANNELS 3 Zrotation Yrotation Xrotation
					JOINT Neck1
					{
						OFFSET -0.054170 1.746240 0.172020
						CHANNELS 3 Zrotation Yrotation Xrotation
						JOINT Head
						{
							OFFSET 0.104070 1.761360 -0.123970
							CHANNELS 3 Zrotation Yrotation Xrotation
							End Site
							{
								OFFSET 0.000000 0.000000 0.000000
							}
						}
					}
				}
				JOINT LeftShoulder
				{
					OFFSET 0.000000 0.000000 0.000000
					CHANNELS 3 Zrotation Yrotation Xrotation
					JOINT LeftArm
					{
						OFFSET 3.362410 1.200890 -0.311210
						CHANNELS 3 Zrotation Yrotation Xrotation
						JOINT LeftForeArm
						{
							OFFSET 4.983000 -0.000000 -0.000000
							CHANNELS 3 Zrotation Yrotation Xrotation
							JOINT LeftHand
							{
								OFFSET 3.483560 -0.000000 -0.000000
								CHANNELS 3 Zrotation Yrotation Xrotation
								JOINT LeftFingerBase
								{
									OFFSET 0.000000 0.000000 0.000000
									CHANNELS 3 Zrotation Yrotation Xrotation
									JOINT LeftHandIndex1
									{
										OFFSET 0.715260 -0.000000 -0.000000
										CHANNELS 3 Zrotation Yrotation Xrotation
										End Site
										{
											OFFSET 0.000000 0.000000 0.000000
										}
									}
								}
								JOINT LThumb
								{
									OFFSET 0.000000 0.000000 0.000000
									CHANNELS 3 Zrotation Yrotation Xrotation
									End Site
									{
										OFFSET 0.000000 0.000000 0.000000
									}
								}
							}
						}
					}
				}
				JOINT RightShoulder
				{
					OFFSET 0.000000 0.000000 0.000000
					CHANNELS 3 Zrotation Yrotation Xrotation
					JOINT RightArm
					{
						OFFSET -3.136600 1.374050 -0.404650
						CHANNELS 3 Zrotation Yrotation Xrotation
						JOINT RightForeArm
						{
							OFFSET -5.241900 -0.000000 -0.000000
							CHANNELS 3 Zrotation Yrotation Xrotation
							JOINT RightHand
							{
								OFFSET -3.444170 -0.000000 -0.000000
								CHANNELS 3 Zrotation Yrotation Xrotation
								JOINT RightFingerBase
								{
									OFFSET 0.000000 0.000000 0.000000
									CHANNELS 3 Zrotation Yrotation Xrotation
									JOINT RightHandIndex1
									{
										OFFSET -0.622530 -0.000000 -0.000000
										CHANNELS 3 Zrotation Yrotation Xrotation
										End Site
										{
											OFFSET 0.000000 0.000000 0.000000
										}
									}
								}
								JOINT RThumb
								{
									OFFSET 0.000000 0.000000 0.000000
									CHANNELS 3 Zrotation Yrotation Xrotation
									End Site
									{
										OFFSET 0.000000 0.000000 0.000000
									}
								}
							}
						}
					}
				}
			}
		}
	}
}
MOTION
Frames: 12
Frame Time: 0.033333
1.368723 16.676718 -3.641012 91.102409 -31.219799 -36.622610 -116.690772 -42.837835 66.042122 1.192778 11.544751 -48.058035 -42.766854 61.807815 -37.722929 -9.326217 11.731404 -12.205839 -0.563736 0.112856 -92.116445 25.121499 -13.776072 -109.291410 -148.093636 -79.207066 118.366064 132.524980 -49.180609 -131.546383 3.933964 -0.134442 -19.022420 0.494046 -0.137501 -73.030799 -89.612125 68.199793 -9.168754 -151.631998 76.991300 -152.511104 -172.868042 69.808204 177.960494 -1.596189 11.925775 0.375623 22.985246 8.259523 -7.499908 0.416430 -0.332156 0.389875 86.247957 51.462944 -26.604235 -32.437900 56.651681 -101.450073 -90.515137 45.616252 -154.533153 -13.398045 -14.609160 0.236510 12.328528 46.954483 -11.707992 -0.520607 -0.316819 0.416161 0.403944 0.382819 -0.418543 42.991124 67.332038 68.251867 52.945861 3.593104 -177.554407 30.038081 -41.242488 38.797430 0.927794 10.826766 -17.127761 -9.012974 16.201823 -174.523986 -0.539258 0.435587 -0.465081 -0.359733 -0.496603 -0.269647 
1.273432 16.778227 -2.887594 90.784576 -30.900497 -36.490999 -116.166781 -45.224217 63.780691 1.982382 13.518570 -45.066604 -49.879562 62.548265 -34.913195 -10.999730 19.376213 -10.995306 0.086709 0.438445 -86.769199 25.156146 -11.552954 -110.206034 -142.721429 -78.634800 109.874360 134.112112 -45.702029 -126.071495 3.471373 1.176488 -17.049462 0.576118 -0.221137 -69.292847 -88.548111 68.393771 -9.278050 -148.278328 77.364137 -149.152523 -177.051986 69.314274 172.430128 -1.658063 7.556163 3.653119 19.438755 4.881350 -8.598556 0.373709 -0.398966 0.447590 81.811916 49.414428 -26.610871 -30.894184 67.239283 -101.894528 -96.737311 48.283682 -155.311179 -19.368133 -21.548573 14.355667 7.005912 39.344178 -7.030933 -0.337683 -0.361179 0.403735 0.459692 0.353701 -0.420186 44.687049 67.657074 68.553566 53.247173 7.863130 -177.593994 19.732404 -45.778225 43.876024 5.473540 14.575757 -19.185872 -2.681052 13.903283 -155.468388 -0.367308 0.438572 -0.444686 -0.459616 -0.410805 -0.331763 
1.146430 16.894089 -2.206506 90.452336 -30.299163 -36.017501 -113.789101 -47.997185 60.079482 3.009655 15.836979 -41.148164 -61.699919 63.847840 -33.406337 -5.429563 21.318183 -4.748810 0.890005 0.701301 -79.813632 25.594646 -8.694596 -109.457853 -144.738362 -80.303331 108.524413 132.965800 -41.924316 -118.182445 1.340111 0.272649 -19.288325 0.460196 -0.205645 -64.937508 -87.980857 69.392268 -9.378416 -147.408991 78.040157 -147.547277 179.085366 70.307156 167.976727 -4.308829 7.938683 6.757730 18.219407 -1.065935 -8.018973 0.402564 -0.365680 0.365461 75.719050 48.217804 -26.586272 -28.487902 75.526773 -101.205816 -97.402784 51.912335 -152.902370 -31.860476 -23.279867 24.634933 -1.968910 28.011934 -5.812919 -0.418153 -0.465262 0.425853 0.469676 0.453366 -0.510453 49.554396 68.102453 73.813211 52.280502 13.885380 -179.480762 5.577684 -47.617748 52.461467 2.318029 13.876339 -15.525988 0.057788 13.797677 -148.345035 -0.546814 0.377752 -0.466131 -0.415540 -0.450155 -0.401899 
1.000030 17.005289 -1.601857 90.242256 -30.518627 -35.556170 -109.400460 -50.457642 56.002908 4.733873 18.437161 -39.218312 -72.280882 64.127084 -31.696815 -2.731531 25.957650 -2.499740 1.918517 0.770989 -68.592429 26.586514 -6.422888 -108.254319 -150.510858 -82.668242 111.663459 131.916355 -37.674540 -112.281640 -2.528159 0.017151 -21.683169 0.555201 -0.150079 -58.941449 -87.989452 69.805345 -9.324412 -147.483647 78.383688 -147.186766 174.057962 70.743530 162.567353 -7.169272 3.383469 8.228849 18.207760 1.081677 -0.715520 0.424998 -0.327643 0.340538 71.827106 47.687892 -25.384484 -23.346409 82.984840 -97.491078 -89.950075 57.671006 -145.333289 -43.633505 -21.120680 35.669659 -10.434979 14.267451 1.087101 -0.351127 -0.409271 0.389652 0.443341 0.339626 -0.483757 54.552358 66.903260 78.404242 48.912662 21.318216 178.994530 -10.480152 -47.370397 61.824931 -0.088819 19.068895 -15.350308 19.731538 7.027870 -137.358143 -0.355863 0.536123 -0.439246 -0.471666 -0.339046 -0.354317 
0.861560 17.109755 -1.046405 90.425994 -29.970022 -35.508837 -104.788688 -51.752241 52.325626 5.903434 19.028932 -39.316475 -79.352269 65.532389 -29.628803 5.129802 25.694378 0.515789 3.150804 0.694924 -56.774680 26.868996 -5.293436 -106.769750 179.226526 -86.087680 137.763830 129.822876 -36.126470 -110.074891 -3.906604 0.344320 -24.844443 0.444269 -0.124787 -51.152937 -89.954628 70.418255 -11.017927 -149.823682 79.168263 -148.903033 171.211267 71.408258 159.508591 -10.953607 5.282048 11.444175 20.899230 -3.799429 0.901154 0.382239 -0.321898 0.365122 67.838744 48.182272 -24.331530 -2.026767 88.185069 -75.974071 -72.210773 59.931029 -129.609431 -49.566866 -17.935663 38.070966 -16.505538 -0.045795 -2.229734 -0.375518 -0.375546 0.422415 0.496988 0.443613 -0.436661 63.116402 66.763930 86.409988 45.969365 28.141192 175.650799 -20.752235 -46.221590 68.301155 -7.068438 23.881924 -13.357289 36.026482 1.393982 -128.124785 -0.589849 0.335850 -0.444146 -0.341894 -0.429744 -0.384491 
0.720368 17.207764 -0.509059 90.898160 -30.061810 -35.742533 -100.557004 -52.223039 50.184057 7.308258 20.492604 -41.550660 -83.116171 66.072476 -27.443663 9.436310 25.952390 0.359598 3.532070 0.327450 -44.770707 26.990916 -5.833970 -105.933747 120.388196 -86.512795 -165.665287 127.379547 -34.546545 -108.549236 -6.564265 0.345454 -25.897844 0.821743 -0.184674 -41.236588 -92.697607 70.470714 -12.941559 -148.193394 78.266577 -147.028089 165.320584 71.833707 152.341509 -13.700299 5.330890 11.908909 22.526233 0.223209 5.923981 0.459520 -0.315567 0.351390 64.860990 47.951990 -21.824251 147.871112 86.575548 74.889210 -44.511691 55.207934 -106.627545 -45.999685 -13.726967 41.379942 -22.578252 -10.256485 3.198566 -0.412697 -0.372347 0.463182 0.405182 0.440027 -0.487877 70.083979 66.187865 94.830364 42.277149 35.278558 171.669016 -26.916260 -44.665208 72.674685 -10.801050 26.577637 -8.562287 52.573091 -2.165742 -108.504638 -0.401931 0.487044 -0.413709 -0.520139 -0.421869 -0.359636 
0.581971 17.295210 0.020197 91.099268 -30.322219 -36.424747 -97.249974 -50.332640 50.029513 10.513896 20.431196 -45.510206 -87.812583 68.480621 -32.497525 13.394809 21.017971 -2.100367 3.817388 -0.007365 -33.588486 27.216308 -5.786893 -105.721123 88.459462 -84.836538 -137.297207 126.734216 -34.422567 -107.437952 -8.394890 -0.542023 -25.076628 0.539618 -0.145696 -32.896543 -95.992126 71.257455 -16.632443 -153.938615 77.907612 -153.040451 162.126878 71.909614 148.723771 -16.210265 4.031880 13.291059 23.269090 -2.364915 4.718572 0.445577 -0.421691 0.482902 63.987583 48.753491 -18.537821 155.862756 81.354114 87.939146 -31.559865 42.983961 -97.744830 -40.925672 -7.790743 39.714777 -26.627431 -18.536797 -1.592123 -0.478229 -0.375092 0.326230 0.361670 0.285270 -0.300849 77.343763 66.021614 102.341822 36.500370 42.343271 164.591022 -34.755762 -44.920190 78.829647 -12.328444 30.953987 -2.296858 62.976003 -14.386376 -93.672376 -0.475782 0.444084 -0.368487 -0.303024 -0.408128 -0.447802 
0.456591 17.364273 0.541701 91.619003 -30.768087 -36.861040 -95.575611 -49.378019 50.580155 13.173728 21.622204 -48.754253 -88.187444 69.443056 -35.279660 18.765839 15.243977 -5.806464 3.371609 -0.264160 -25.930232 28.249186 -6.458675 -106.401248 66.727719 -83.026024 -116.882623 125.964727 -34.416787 -108.393640 -11.641235 -1.831295 -24.698615 0.407712 -0.030497 -24.084272 -99.127551 71.476871 -18.635337 -152.433241 77.030876 -151.687016 157.823327 71.055197 144.122453 -17.116072 6.410412 14.297431 22.893505 1.081315 3.673236 0.437462 -0.403592 0.299581 63.393369 48.575155 -13.918590 160.360224 76.628551 98.801307 -23.233047 31.163868 -94.021067 -31.547652 -5.849345 34.657126 -27.008568 -28.004112 -4.025056 -0.431241 -0.339678 0.444992 0.423741 0.486334 -0.417083 83.804858 66.315133 111.151113 28.368452 48.804907 153.353066 -44.606891 -45.814702 89.356680 -15.941095 33.382059 0.489682 64.977597 -22.086623 -72.331832 -0.423087 0.352287 -0.377928 -0.531593 -0.420412 -0.334718 
0.354431 17.408058 1.059741 92.156288 -31.245185 -37.226884 -96.351179 -47.769627 54.451538 16.054942 23.424287 -53.690942 -81.376406 70.256422 -35.614515 24.440947 8.589669 -9.707381 3.304519 -0.365691 -21.478954 29.522877 -6.920762 -108.155092 49.957058 -81.494792 -101.385897 126.847837 -35.436811 -112.171876 -8.819027 -1.348131 -24.057569 0.464419 -0.058920 -18.405372 -101.814780 71.564889 -21.019506 -157.299288 76.488755 -156.805088 158.449806 70.696289 144.527485 -17.543323 4.980797 14.384495 21.603985 5.234672 3.502720 0.374429 -0.336825 0.492529 63.692275 49.180439 -10.696198 148.738058 73.024849 94.160538 -26.501608 29.058306 -99.592820 -30.548003 -6.878910 36.654225 -23.409414 -36.749398 -16.580174 -0.397329 -0.427874 0.337355 0.448081 0.279403 -0.353699 88.919226 65.826772 116.865589 18.414448 54.483860 140.756829 -54.578237 -48.293204 101.222871 -18.530702 37.276313 4.181306 59.591661 -32.614174 -45.715806 -0.398679 0.437563 -0.302363 -0.256956 -0.362591 -0.462517 
0.275165 17.420050 1.583463 93.220455 -31.872024 -37.410136 -97.730733 -47.086763 56.398868 18.651785 24.500194 -55.333020 -74.963433 70.881681 -39.844543 32.944529 3.039265 -15.039188 2.872455 -0.316714 -21.204107 30.599121 -7.846671 -109.668932 41.862203 -78.595803 -94.107923 124.686907 -38.533093 -117.277299 -7.307327 -2.723110 -23.313044 0.529902 -0.021189 -14.888505 -103.097185 70.594759 -20.949161 -159.800792 74.708170 -159.094320 158.361238 71.145394 144.764137 -15.067795 8.639325 14.559132 15.886668 5.321634 1.101512 0.389055 -0.510512 0.298309 67.008916 51.137192 -4.859044 133.934939 71.190336 88.487309 -31.996298 30.447965 -107.244038 -26.667292 -11.750615 38.875348 -14.852565 -38.846859 -33.663754 -0.477584 -0.362073 0.368121 0.289461 0.401238 -0.412313 94.915194 65.823951 123.717658 8.602762 57.605113 124.882764 -67.464855 -47.428041 117.104067 -24.007278 37.202865 8.460482 60.165850 -31.915755 -26.603356 -0.454320 0.333427 -0.414042 -0.480397 -0.410401 -0.236588 
0.209532 17.398878 2.119369 93.578619 -31.466964 -37.174455 -99.551566 -46.306722 60.201296 19.958056 25.239165 -58.030608 -59.645584 70.823187 -38.057250 32.732890 -1.445478 -21.365579 2.457405 -0.193437 -23.712090 32.297276 -9.055834 -111.838428 33.060869 -74.089361 -86.575734 121.496256 -41.714139 -122.782980 0.572714 -4.254252 -24.945071 1.070272 -0.173022 -15.544771 -106.073999 70.275161 -22.599971 -160.341655 74.426022 -161.210025 162.200815 70.051238 148.007022 -13.244243 6.563297 14.942957 15.857564 12.406332 2.018995 0.369116 -0.282117 0.406372 69.527816 53.341085 -1.194263 117.094911 69.070554 77.756658 -43.272973 37.262190 -117.909679 -30.137606 -8.299969 45.691678 -5.758715 -36.954233 -51.403258 -0.315562 -0.451757 0.337795 0.452066 0.304742 -0.432159 94.047493 65.246868 122.840178 -3.760155 60.453160 108.318072 -81.384974 -43.808433 130.476103 -17.930841 41.370504 20.394056 62.067566 -34.751043 -6.992601 -0.374011 0.427251 -0.375936 -0.352100 -0.338076 -0.459028 
0.171420 17.337751 2.660580 93.909535 -31.146356 -36.715669 -101.344077 -46.436420 61.860238 21.394991 25.648441 -57.526482 -45.000964 70.071780 -37.305018 32.122234 -6.762856 -23.296948 1.910887 -0.014307 -28.156177 33.102389 -10.534882 -113.100113 32.906277 -69.422355 -88.134064 116.574067 -46.868927 -127.259738 9.632528 -2.797276 -27.638332 1.760516 -0.337674 -19.299028 -103.881699 70.060252 -18.979137 -164.791351 73.338141 -164.307663 164.972195 70.924757 151.584578 -9.023212 6.703664 16.045653 10.725316 6.916279 0.356806 0.346944 -0.458322 0.236445 75.007308 56.888740 6.344284 102.858244 66.068457 69.579863 -61.386325 39.749984 -130.568274 -28.454394 -7.556205 54.220364 -2.985456 -38.027177 -55.836931 -0.466943 -0.352265 0.350233 0.291281 0.284229 -0.340725 95.259859 65.085011 122.742122 -13.587266 62.151006 95.039458 -92.919677 -38.624391 140.573150 -22.833115 43.528299 26.922348 66.250733 -40.647321 4.445030 -0.361004 0.329837 -0.288008 -0.446917 -0.323624 -0.222799 
